<?xml version="1.0" encoding="UTF-8" standalone="no"?>
<svg
   xmlns:dc="http://purl.org/dc/elements/1.1/"
   xmlns:cc="http://creativecommons.org/ns#"
   xmlns:rdf="http://www.w3.org/1999/02/22-rdf-syntax-ns#"
   xmlns:svg="http://www.w3.org/2000/svg"
   xmlns="http://www.w3.org/2000/svg"
   xmlns:sodipodi="http://sodipodi.sourceforge.net/DTD/sodipodi-0.dtd"
   xmlns:inkscape="http://www.inkscape.org/namespaces/inkscape"
   width="76mm"
   height="10mm"
   viewBox="0 0 76 10"
   version="1.1"
   id="svg8"
   inkscape:version="1.0.1 (3bc2e813f5, 2020-09-07)"
   sodipodi:docname="logo.svg">
  <style
     id="style883">
#g1032 { 
}
</style>
  <defs
     id="defs2" />
  <sodipodi:namedview
     id="base"
     pagecolor="#ffffff"
     bordercolor="#666666"
     borderopacity="1.0"
     inkscape:pageopacity="0.0"
     inkscape:pageshadow="2"
     inkscape:zoom="3.959798"
     inkscape:cx="136.93782"
     inkscape:cy="3.070786"
     inkscape:document-units="mm"
     inkscape:current-layer="Logo"
     inkscape:document-rotation="0"
     showgrid="false"
     inkscape:window-width="1920"
     inkscape:window-height="1147"
     inkscape:window-x="1912"
     inkscape:window-y="-8"
     inkscape:window-maximized="1" />
  <metadata
     id="metadata5">
    <rdf:RDF>
      <cc:Work
         rdf:about="">
        <dc:format>image/svg+xml</dc:format>
        <dc:type
           rdf:resource="http://purl.org/dc/dcmitype/StillImage" />
        <dc:title></dc:title>
      </cc:Work>
    </rdf:RDF>
  </metadata>
  <g
     inkscape:label="Ebene 1"
     inkscape:groupmode="layer"
     id="layer1">
    <g
       id="Logo"
       transform="matrix(0.26458333,0,0,0.26458333,5.5626681e-6,0)">
      <path
         id="path952"
         style="fill:#ffffff;fill-opacity:0.85;stroke-width:1.06109"
         d="M 2.137477,0 H 5.8048697 17.0109 h 253.22226 12.27676 2.59469 c 1.18462,0 2.13947,1.0042403 2.13947,2.2504415 V 35.547005 c 0,1.246199 -0.95485,2.248271 -2.13947,2.248271 H 282.50992 270.23316 17.0109 5.8048697 2.137477 c -1.18462714,0 -2.137498024258,-1.002074 -2.137498024258,-2.248271 V 2.2504415 C -2.1024258e-5,1.0042403 0.95284986,0 2.137477,0 Z"
         sodipodi:nodetypes="sccccssssccccssss" />
      <g
         id="g879"
         style="opacity:0.994"
         transform="translate(1.8897569,1.8897645)">
        <path
           d="m 6.21,17.022873 -5.92,-5.92 A 0.79,0.79 0 0 1 0,10.532873 0.8,0.8 0 0 1 0.32,9.9628728 l 0.73,-0.64 a 0.92,0.92 0 0 1 0.53,-0.25 0.81,0.81 0 0 1 0.57,0.28 l 5.61,5.5800002 a 5.7,5.7 0 0 1 0.83,1 2.07,2.07 0 0 1 0.28,1.08 2,2 0 0 1 -0.28,1 5.7,5.7 0 0 1 -0.83,1 l -5.61,5.68 a 0.77,0.77 0 0 1 -0.57,0.25 0.76,0.76 0 0 1 -0.53,-0.22 l -0.73,-0.67 a 0.8,0.8 0 0 1 -0.32,-0.57 0.62,0.62 0 0 1 0.29,-0.53 z"
           style="fill:#064482;fill-opacity:1"
           id="path897" />
        <rect
           x="264.56693"
           width="18.897638"
           height="34.015747"
           rx="2.110184"
           ry="2.0245085"
           style="fill:#064482;fill-opacity:1;stroke-width:1.02322"
           id="rect919"
           y="0" />
        <g
           id="g1032"
           transform="translate(3.6428573,-50.134984)">
          <path
             d="m 24.746018,75.396835 h -0.51 a 1.91,1.91 0 0 1 -1.87,-1.14 l -4.27,-8.56 -4.28,8.56 a 1.9,1.9 0 0 1 -1.87,1.14 h -0.51 a 0.76000001,0.76000001 0 0 1 -0.85,-0.79 L 9.9560181,60.216836 a 0.65000001,0.65000001 0 0 1 0.2199999,-0.58 0.85000001,0.85000001 0 0 1 0.6,-0.24 h 1.08 a 0.71000001,0.71000001 0 0 1 0.55,0.22 1,1 0 0 1 0.24,0.6 l 0.57,9.999999 3.52,-7 a 0.90000001,0.90000001 0 0 1 0.91,-0.57 h 0.93 a 0.93000001,0.93000001 0 0 1 0.92,0.57 l 3.52,7 0.56,-9.999999 a 1,1 0 0 1 0.23,-0.6 0.73000001,0.73000001 0 0 1 0.56,-0.22 h 1.08 a 0.82000001,0.82000001 0 0 1 0.82,0.82 l -0.69,14.389999 c 0,0.52 -0.26,0.79 -0.83,0.79 z"
             style="fill:#14213d"
             id="path899" />
          <path
             d="m 43.016018,73.936835 a 0.68000001,0.68000001 0 0 1 -0.51,0.67 12,12 0 0 1 -4.75,0.95 7.8500001,7.8500001 0 0 1 -5.52,-2 q -2.17,-2 -2.18,-6.23 a 10.09,10.09 0 0 1 0.89,-4.43 6.6500001,6.6500001 0 0 1 2.37,-2.839999 6.0000001,6.0000001 0 0 1 3.26,-0.93 6.0000001,6.0000001 0 0 1 5.4,3.299999 8.0000001,8.0000001 0 0 1 0.87,3.83 v 0.73 a 0.70000001,0.70000001 0 0 1 -0.79,0.79 h -9.28 a 5.4700001,5.4700001 0 0 0 1.54,4.07 5.1500001,5.1500001 0 0 0 3.56,1.28 11.4,11.4 0 0 0 3.7,-0.77 0.83000001,0.83000001 0 0 1 0.35,-0.07 0.68000001,0.68000001 0 0 1 0.67,0.51 l 0.31,0.76 a 0.80000001,0.80000001 0 0 1 0.11,0.38 z m -8.78,-11.44 a 4.1600001,4.1600001 0 0 0 -1.23,2.79 h 7.19 a 3.79,3.79 0 0 0 -0.54,-2.06 3.72,3.72 0 0 0 -1.35,-1.3 3.37,3.37 0 0 0 -4.07,0.57 z"
             style="fill:#14213d"
             id="path901" />
          <path
             d="m 58.766019,75.176835 a 45.000001,45.000001 0 0 1 -5.1,0.38 9.3700001,9.3700001 0 0 1 -3.560001,-0.62 5.1400001,5.1400001 0 0 1 -2.27,-1.66 3.82,3.82 0 0 1 0,-4.57 5.2600001,5.2600001 0 0 1 2.28,-1.67 9.3500001,9.3500001 0 0 1 3.650001,-0.64 h 3.07 v -1.27 a 3.42,3.42 0 0 0 -1,-2.83 4.8600001,4.8600001 0 0 0 -3.1,-0.84 14.82,14.82 0 0 0 -2.880001,0.32 0.93000001,0.93000001 0 0 1 -0.26,0 0.63000001,0.63000001 0 0 1 -0.69,-0.6 l -0.1,-0.859999 v -0.19 a 0.79000001,0.79000001 0 0 1 0.14,-0.49 0.75000001,0.75000001 0 0 1 0.46,-0.24 20.52,20.52 0 0 1 3.930001,-0.41 6.6700001,6.6700001 0 0 1 4.66,1.46 c 1.01,0.999999 1.58,2.549999 1.58,4.679999 v 9.19 a 0.78000001,0.78000001 0 0 1 -0.81,0.86 z m -7.930001,-5.7 a 1.81,1.81 0 0 0 -1,1.55 1.77,1.77 0 0 0 1,1.53 5.9000001,5.9000001 0 0 0 3.000001,0.62 c 0.59,0 1.59,-0.06 3,-0.19 v -4.15 h -3.07 a 5.5200001,5.5200001 0 0 0 -2.930001,0.64 z"
             style="fill:#14213d"
             id="path903" />
          <path
             d="m 73.986018,61.776835 a 19.69,19.69 0 0 0 -2.85,-0.29 6.1500001,6.1500001 0 0 0 -2.659999,0.52 1.62,1.62 0 0 0 -1.08,1.48 1.78,1.78 0 0 0 0.85,1.45 5.0000001,5.0000001 0 0 0 2.379999,0.83 7.2700001,7.2700001 0 0 1 4.2,1.65 4.2100001,4.2100001 0 0 1 1.38,3.2 4.3200001,4.3200001 0 0 1 -1.75,3.58 7.8400001,7.8400001 0 0 1 -4.879999,1.36 26.92,26.92 0 0 1 -4.27,-0.35 0.66000001,0.66000001 0 0 1 -0.67,-0.7 0.85000001,0.85000001 0 0 1 0,-0.25 l 0.19,-0.82 a 0.73000001,0.73000001 0 0 1 0.92,-0.64 22.48,22.48 0 0 0 3.83,0.33 5.1400001,5.1400001 0 0 0 2.929999,-0.7 2.08,2.08 0 0 0 1,-1.8 2,2 0 0 0 -0.77,-1.59 4.3500001,4.3500001 0 0 0 -2.43,-0.82 7.0000001,7.0000001 0 0 1 -4.109999,-1.57 4.0500001,4.0500001 0 0 1 -1.49,-3.15 3.8,3.8 0 0 1 1.61,-3.169999 7.2900001,7.2900001 0 0 1 4.499999,-1.2 20.58,20.58 0 0 1 3.76,0.3 0.65000001,0.65000001 0 0 1 0.63,0.7 0.85000001,0.85000001 0 0 1 0,0.25 l -0.22,0.829999 a 0.74000001,0.74000001 0 0 1 -1,0.57 z"
             style="fill:#14213d"
             id="path905" />
          <path
             d="m 94.056018,59.566836 a 0.59000001,0.59000001 0 0 1 0.19,0.46 0.93000001,0.93000001 0 0 1 0,0.26 l -3.96,15.589999 a 12.62,12.62 0 0 1 -2.6,5.57 5.7100001,5.7100001 0 0 1 -4.37,1.68 11.63,11.63 0 0 1 -3.86,-0.76 0.70000001,0.70000001 0 0 1 -0.54,-0.7 2,2 0 0 1 0.06,-0.31 l 0.29,-0.79 a 0.67000001,0.67000001 0 0 1 0.66,-0.54 0.85000001,0.85000001 0 0 1 0.35,0.06 9.0000001,9.0000001 0 0 0 1.57,0.4 9.9400001,9.9400001 0 0 0 1.47,0.14 3.28,3.28 0 0 0 2.66,-1.21 9.6800001,9.6800001 0 0 0 1.68,-3.89 h -0.41 a 4.1700001,4.1700001 0 0 1 -2.55,-0.73 3.57,3.57 0 0 1 -1.35,-2.12 l -3.1,-12.419999 a 0.93000001,0.93000001 0 0 1 0,-0.26 q 0,-0.63 0.72,-0.63 h 1.15 a 0.76000001,0.76000001 0 0 1 0.85,0.67 l 3.07,12.219999 a 1.17,1.17 0 0 0 0.42,0.7 1.26,1.26 0 0 0 0.82,0.26 h 1 l 3.3,-13.149999 a 0.83000001,0.83000001 0 0 1 0.88,-0.67 h 1.12 a 0.75000001,0.75000001 0 0 1 0.48,0.17 z"
             style="fill:#14213d"
             id="path907" />
          <path
             d="m 99.096018,59.996836 a 12.55,12.55 0 0 1 4.720002,-0.92 7.7900001,7.7900001 0 0 1 5.51,2 q 2.19,1.999999 2.19,6.219999 0,4.22 -2.19,6.23 a 7.8200001,7.8200001 0 0 1 -5.51,2 12.36,12.36 0 0 1 -2.44,-0.26 v 7.07 a 0.70000001,0.70000001 0 0 1 -0.8,0.79 h -1.100002 a 0.70000001,0.70000001 0 0 1 -0.79,-0.79 V 60.666836 a 0.67000001,0.67000001 0 0 1 0.41,-0.67 z m 4.400002,13.209999 a 5.4100001,5.4100001 0 0 0 3.83,-1.34 c 1,-0.9 1.46,-2.42 1.46,-4.55 a 6.1100001,6.1100001 0 0 0 -1.34,-4.4 4.8800001,4.8800001 0 0 0 -3.63,-1.37 10.77,10.77 0 0 0 -2.44,0.29 v 11.15 a 11.65,11.65 0 0 0 2.12,0.22 z"
             style="fill:#14213d"
             id="path909" />
          <path
             d="m 117.01602,59.456836 a 36.87,36.87 0 0 1 5.39,-0.38 12.17,12.17 0 0 1 3.94,0.51 3.87,3.87 0 0 1 2.11,1.619999 5.8700001,5.8700001 0 0 1 0.66,3 0.70000001,0.70000001 0 0 1 -0.79,0.79 h -1.11 a 0.70000001,0.70000001 0 0 1 -0.79,-0.79 2.35,2.35 0 0 0 -0.92,-2.11 5.8100001,5.8100001 0 0 0 -3.1,-0.62 c -1,0 -2.16,0 -3.42,0.13 v 12.84 a 0.70000001,0.70000001 0 0 1 -0.8,0.79 h -1.11 a 0.70000001,0.70000001 0 0 1 -0.79,-0.79 V 60.316836 a 0.81000001,0.81000001 0 0 1 0.73,-0.86 z"
             style="fill:#14213d"
             id="path911" />
          <path
             d="m 144.90602,73.586835 v 0.86 a 0.70000001,0.70000001 0 0 1 -0.79,0.79 h -11.25 a 0.70000001,0.70000001 0 0 1 -0.79,-0.79 v -0.86 a 0.70000001,0.70000001 0 0 1 0.79,-0.79 h 4.28 v -11 h -3.23 a 0.70000001,0.70000001 0 0 1 -0.79,-0.789999 v -0.83 a 0.70000001,0.70000001 0 0 1 0.79,-0.79 h 5.13 a 0.70000001,0.70000001 0 0 1 0.79,0.79 v 12.619999 h 4.28 a 0.70000001,0.70000001 0 0 1 0.79,0.79 z m -5.07,-21.64 v 2.1 a 0.70000001,0.70000001 0 0 1 -0.79,0.79 h -2.06 a 0.70000001,0.70000001 0 0 1 -0.79,-0.79 v -2.1 a 0.70000001,0.70000001 0 0 1 0.79,-0.79 h 2.06 a 0.70000001,0.70000001 0 0 1 0.79,0.79 z"
             style="fill:#14213d"
             id="path913" />
          <path
             d="m 149.84602,59.456836 a 36.73,36.73 0 0 1 5.38,-0.38 q 3.56,0 5.14,1.48 1.58,1.479999 1.58,4.919999 v 9 a 0.70000001,0.70000001 0 0 1 -0.79,0.79 h -1.11 a 0.70000001,0.70000001 0 0 1 -0.79,-0.79 v -9 a 4.2400001,4.2400001 0 0 0 -0.92,-3.1 4.4100001,4.4100001 0 0 0 -3.11,-0.89 c -1,0 -2.15,0 -3.42,0.13 v 12.83 a 0.70000001,0.70000001 0 0 1 -0.79,0.79 h -1.11 a 0.70000001,0.70000001 0 0 1 -0.79,-0.79 V 60.316836 a 0.81000001,0.81000001 0 0 1 0.73,-0.86 z"
             style="fill:#14213d"
             id="path915" />
          <path
             d="m 178.97602,74.286835 q 0,0.45 -0.54,0.63 a 9.5600001,9.5600001 0 0 1 -3.33,0.64 5.6100001,5.6100001 0 0 1 -4.15,-1.62 c -1.07,-1.07 -1.61,-2.8 -1.61,-5.16 v -7 h -2.41 a 0.70000001,0.70000001 0 0 1 -0.79,-0.789999 v -0.83 a 0.70000001,0.70000001 0 0 1 0.79,-0.79 h 2.41 v -4.24 a 0.70000001,0.70000001 0 0 1 0.79,-0.790001 h 1.11 a 0.70000001,0.70000001 0 0 1 0.79,0.790001 v 4.28 h 5.2 a 0.70000001,0.70000001 0 0 1 0.79,0.79 v 0.83 a 0.70000001,0.70000001 0 0 1 -0.79,0.789999 h -5.2 v 7 a 5.3800001,5.3800001 0 0 0 0.79,3.36 2.82,2.82 0 0 0 2.28,0.95 6.7700001,6.7700001 0 0 0 2.38,-0.45 0.91000001,0.91000001 0 0 1 0.38,-0.06 0.71000001,0.71000001 0 0 1 0.71,0.51 l 0.35,0.82 a 0.77000001,0.77000001 0 0 1 0.05,0.34 z"
             style="fill:#14213d"
             id="path917" />
          <path
             d="m 198.58584,58.951759 a 36.87,36.87 0 0 1 5.39,-0.38 12.17,12.17 0 0 1 3.94,0.51 3.87,3.87 0 0 1 2.11,1.619999 5.8700001,5.8700001 0 0 1 0.66,3 0.70000001,0.70000001 0 0 1 -0.79,0.79 h -1.11 a 0.70000001,0.70000001 0 0 1 -0.79,-0.79 2.35,2.35 0 0 0 -0.92,-2.11 5.8100001,5.8100001 0 0 0 -3.1,-0.62 c -1,0 -2.16,0 -3.42,0.13 v 12.84 a 0.70000001,0.70000001 0 0 1 -0.8,0.79 h -1.11 a 0.70000001,0.70000001 0 0 1 -0.79,-0.79 V 59.811759 a 0.81000001,0.81000001 0 0 1 0.73,-0.86 z"
             style="fill:#14213d"
             id="path1003" />
          <path
             d="m 226.35868,73.179222 a 0.68000001,0.68000001 0 0 1 -0.51,0.67 12,12 0 0 1 -4.75,0.95 7.8500001,7.8500001 0 0 1 -5.52,-2 q -2.17,-2 -2.18,-6.23 a 10.09,10.09 0 0 1 0.89,-4.43 6.6500001,6.6500001 0 0 1 2.37,-2.839999 6.0000001,6.0000001 0 0 1 3.26,-0.93 6.0000001,6.0000001 0 0 1 5.4,3.299999 8.0000001,8.0000001 0 0 1 0.87,3.83 v 0.73 a 0.70000001,0.70000001 0 0 1 -0.79,0.79 h -9.28 a 5.4700001,5.4700001 0 0 0 1.54,4.07 5.1500001,5.1500001 0 0 0 3.56,1.28 11.4,11.4 0 0 0 3.7,-0.77 0.83000001,0.83000001 0 0 1 0.35,-0.07 0.68000001,0.68000001 0 0 1 0.67,0.51 l 0.31,0.76 a 0.80000001,0.80000001 0 0 1 0.11,0.38 z m -8.78,-11.44 a 4.1600001,4.1600001 0 0 0 -1.23,2.79 h 7.19 a 3.79,3.79 0 0 0 -0.54,-2.06 3.72,3.72 0 0 0 -1.35,-1.3 3.37,3.37 0 0 0 -4.07,0.57 z"
             style="fill:#14213d"
             id="path1005" />
          <path
             d="m 239.98475,61.019221 a 19.69,19.69 0 0 0 -2.85,-0.29 6.1500001,6.1500001 0 0 0 -2.66,0.52 1.62,1.62 0 0 0 -1.08,1.48 1.78,1.78 0 0 0 0.85,1.45 5.0000001,5.0000001 0 0 0 2.38,0.83 7.2700001,7.2700001 0 0 1 4.2,1.65 4.2100001,4.2100001 0 0 1 1.38,3.2 4.3200001,4.3200001 0 0 1 -1.75,3.58 7.8400001,7.8400001 0 0 1 -4.88,1.36 26.92,26.92 0 0 1 -4.27,-0.35 0.66000001,0.66000001 0 0 1 -0.67,-0.7 0.85000001,0.85000001 0 0 1 0,-0.25 l 0.19,-0.82 a 0.73000001,0.73000001 0 0 1 0.92,-0.64 22.48,22.48 0 0 0 3.83,0.33 5.1400001,5.1400001 0 0 0 2.93,-0.7 2.08,2.08 0 0 0 1,-1.8 2,2 0 0 0 -0.77,-1.59 4.3500001,4.3500001 0 0 0 -2.43,-0.82 7.0000001,7.0000001 0 0 1 -4.11,-1.57 4.0500001,4.0500001 0 0 1 -1.49,-3.15 3.8,3.8 0 0 1 1.61,-3.169999 7.2900001,7.2900001 0 0 1 4.5,-1.2 20.58,20.58 0 0 1 3.76,0.3 0.65000001,0.65000001 0 0 1 0.63,0.7 0.85000001,0.85000001 0 0 1 0,0.25 l -0.22,0.829999 a 0.74000001,0.74000001 0 0 1 -1,0.57 z"
             style="fill:#14213d"
             id="path1007" />
          <path
             d="m 257.26284,73.402952 q 0,0.45 -0.54,0.63 a 9.5600001,9.5600001 0 0 1 -3.33,0.64 5.6100001,5.6100001 0 0 1 -4.15,-1.62 c -1.07,-1.07 -1.61,-2.8 -1.61,-5.16 v -7 h -2.41 a 0.70000001,0.70000001 0 0 1 -0.79,-0.789999 v -0.83 a 0.70000001,0.70000001 0 0 1 0.79,-0.79 h 2.41 v -4.24 a 0.70000001,0.70000001 0 0 1 0.79,-0.790001 h 1.11 a 0.70000001,0.70000001 0 0 1 0.79,0.790001 v 4.28 h 5.2 a 0.70000001,0.70000001 0 0 1 0.79,0.79 v 0.83 a 0.70000001,0.70000001 0 0 1 -0.79,0.789999 h -5.2 v 7 a 5.3800001,5.3800001 0 0 0 0.79,3.36 2.82,2.82 0 0 0 2.28,0.95 6.7700001,6.7700001 0 0 0 2.38,-0.45 0.91000001,0.91000001 0 0 1 0.38,-0.06 0.71000001,0.71000001 0 0 1 0.71,0.51 l 0.35,0.82 a 0.77000001,0.77000001 0 0 1 0.05,0.34 z"
             style="fill:#14213d"
             id="path1009" />
          <path
             d="m 183.27531,67.776835 c -0.46029,0.06421 -0.85421,-0.329709 -0.79,-0.789999 v -0.83 c -0.0642,-0.460291 0.32971,-0.85421 0.79,-0.79 10.3,0.04 0,0 10.3,0.04 0.46029,-0.06421 0.85421,0.329709 0.79,0.79 v 0.83 c 0.0642,0.46029 -0.32971,0.854209 -0.79,0.789999 -10.3,-0.04 0,0 -10.3,-0.04 z"
             style="fill:#14213d"
             id="path1015"
             sodipodi:nodetypes="ccccccccc" />
        </g>
      </g>
    </g>
  </g>
</svg>
